<svg width="248" height="329" viewBox="0 0 248 329" fill="none" xmlns="http://www.w3.org/2000/svg">
<g clip-path="url(#clip0_83_1700)">
<g clip-path="url(#clip1_83_1700)">
<path d="M132.35 45.2998C127.99 50.9498 122.42 38.6998 120.61 45.2998C120.27 46.5298 120.03 47.6698 119.81 48.7598L119.65 48.5298C115.47 43.0598 111.97 49.1798 105.81 45.5298C104.67 44.8498 115.56 42.2898 114.23 42.3898C114.23 42.3898 104.48 38.0298 99.1599 30.8998C93.8399 23.7698 94.8399 10.7898 97.5999 0.839844L102.28 2.13984C114.39 5.49984 127.14 15.4498 131.33 23.4998C136.18 32.8198 132.33 45.1998 132.33 45.1998C131.74 45.6998 132.8 44.7198 132.35 45.2998Z" fill="#3E7739"/>
<path d="M102.26 7.39007C102.58 7.10443 103.001 6.95682 103.429 6.97929C103.858 7.00175 104.261 7.19249 104.55 7.51007L107.38 10.6501C113.891 17.9029 118.81 26.4397 121.82 35.7101C121.952 36.1198 121.917 36.5655 121.721 36.949C121.525 37.3325 121.185 37.6225 120.775 37.7551C120.365 37.8877 119.919 37.8521 119.536 37.6561C119.152 37.4601 118.862 37.1198 118.73 36.7101C115.88 27.8715 111.202 19.7317 105 12.8201L102.17 9.68007C101.88 9.36334 101.728 8.94529 101.744 8.51659C101.761 8.08789 101.946 7.68312 102.26 7.39007Z" fill="#396C34"/>
<path d="M123 235.98C179.145 235.98 224.66 190.465 224.66 134.32C224.66 78.1749 179.145 32.6602 123 32.6602C66.8546 32.6602 21.3398 78.1749 21.3398 134.32C21.3398 190.465 66.8546 235.98 123 235.98Z" fill="url(#paint0_radial_83_1700)"/>
<path d="M154.56 231C157.06 230.18 159.56 229.28 161.92 228.28C137.007 234.41 110.697 230.894 88.2682 218.436C65.8393 205.978 48.9501 185.501 40.9885 161.111C33.0269 136.722 34.5816 110.223 45.3409 86.9321C56.1002 63.6408 75.2682 45.2789 99.0001 35.5298C96.4801 36.1498 93.9634 36.8665 91.4501 37.6798C65.8142 46.0487 44.5529 64.2586 32.3434 88.3036C20.1338 112.349 17.9762 140.259 26.3451 165.895C34.714 191.531 52.9239 212.792 76.9689 225.001C101.014 237.211 128.924 239.369 154.56 231Z" fill="#FEBB12"/>
<path d="M182.37 177C183.999 176.719 185.669 176.787 187.27 177.2C188.808 177.614 190.263 178.29 191.57 179.2C192.881 180.12 194.002 181.285 194.87 182.63C195.773 184.035 196.375 185.611 196.64 187.26C196.892 188.907 196.813 190.589 196.406 192.205C195.999 193.821 195.273 195.339 194.27 196.67C179.364 213.21 161.13 223.26 139.57 226.82C114.004 231.04 90.7235 225.627 69.7302 210.58C48.7368 195.534 36.1335 175.227 31.9202 149.66C27.7202 124.167 33.1402 100.927 48.1802 79.9402C63.2202 58.9535 83.5202 46.3069 109.08 42.0002C130.947 38.3935 151.884 42.3369 171.89 53.8302C173.17 54.749 174.243 55.9258 175.041 57.2848C175.838 58.6437 176.342 60.1546 176.52 61.7202C176.812 63.3784 176.771 65.0779 176.4 66.7202C176.018 68.2693 175.338 69.7295 174.4 71.0202C173.461 72.3226 172.271 73.4242 170.9 74.2602C169.496 75.1367 167.933 75.728 166.3 76.0002C163.146 76.4572 159.934 75.715 157.3 73.9202C150.731 70.2824 143.599 67.771 136.2 66.4902C128.566 65.185 120.765 65.185 113.13 66.4902C94.3435 69.5902 79.3868 78.9002 68.2602 94.4202C57.2668 109.754 53.3202 126.817 56.4202 145.61C59.5202 164.404 68.7469 179.334 84.1002 190.4C99.5202 201.46 116.667 205.434 135.54 202.32C151.042 199.968 165.211 192.206 175.54 180.41C177.428 178.621 179.806 177.434 182.37 177Z" fill="url(#paint1_linear_83_1700)"/>
<path d="M162.34 156.89C163.311 156.591 164.335 156.509 165.34 156.65C166.29 156.775 167.211 157.066 168.06 157.51C168.914 157.959 169.668 158.575 170.28 159.32C170.93 160.094 171.407 160.997 171.68 161.97C171.954 162.936 172.032 163.947 171.908 164.943C171.785 165.939 171.462 166.901 170.96 167.77C163.654 178.462 152.84 186.265 140.39 189.83C133.267 191.926 125.801 192.596 118.419 191.801C111.037 191.007 103.884 188.764 97.3703 185.2C90.8565 181.637 85.1099 176.823 80.4596 171.035C75.8093 165.247 72.3467 158.598 70.2702 151.47C66.0736 137.086 67.7559 121.625 74.9479 108.48C82.1399 95.3354 94.2537 85.5816 108.63 81.3599C121.457 77.5999 134.287 78.4299 147.12 83.8499C147.953 84.3093 148.681 84.9382 149.256 85.696C149.832 86.4538 150.242 87.3238 150.46 88.2499C150.763 89.219 150.865 90.2399 150.76 91.2499C150.648 92.2027 150.356 93.1256 149.9 93.9699C149.43 94.818 148.798 95.5655 148.04 96.1699C147.25 96.7935 146.347 97.2587 145.38 97.5399C143.525 98.0445 141.548 97.834 139.84 96.9499C135.626 95.233 131.154 94.2358 126.61 93.9999C121.941 93.7761 117.268 94.3476 112.79 95.6899C107.551 97.2162 102.664 99.7613 98.4099 103.18C94.1558 106.598 90.618 110.822 87.9993 115.61C85.3805 120.398 83.7323 125.655 83.149 131.081C82.5658 136.507 83.0589 141.995 84.6002 147.23C86.802 154.743 91.0814 161.48 96.9455 166.667C102.809 171.854 110.02 175.278 117.745 176.546C125.47 177.813 133.396 176.873 140.611 173.832C147.825 170.792 154.033 165.775 158.52 159.36C159.525 158.182 160.853 157.323 162.34 156.89Z" fill="white"/>
<path d="M4.14989 257.5C15.7799 244.28 51.3499 249.21 70.0299 237.01C74.0299 234.42 75.7099 231.36 74.9299 239.45C73.3599 253.17 55.7799 258.66 44.2499 258.97C40.5999 266.17 29.2499 319.83 38.6899 322.86C39.9399 323.48 41.2499 323.18 41.4499 324.05C41.6099 327.88 26.6199 333.05 23.5399 317.94C21.6799 307.24 22.5399 265.94 34.4399 260.71C24.5299 260.83 15.4399 261.95 12.1999 266.71C9.65988 270.8 13.9099 277.54 20.0699 276.71C23.5199 276.09 25.6899 274.71 25.4499 276.09C25.1399 278.28 17.4499 286.89 9.17989 282.85C-0.170113 278.76 -3.15011 266 4.14989 257.5Z" fill="#255296"/>
<path d="M64.9102 310.64C56.9102 310.31 56.3301 301.51 56.8401 295.04C57.1235 291.873 57.5843 288.725 58.2201 285.61C56.5835 286.368 54.8609 286.926 53.0901 287.27C50.3201 287.64 47.5502 286.82 46.6002 283.91C46.0202 281.84 45.6701 277.23 47.0601 274.91C48.7301 271.85 53.0602 274.06 53.3302 275.74C54.2402 280.41 46.9801 285.97 60.3301 273.09C61.4722 271.879 62.9197 270.998 64.5202 270.54C65.8243 270.336 67.1588 270.594 68.2928 271.269C69.4267 271.945 70.2889 272.996 70.7301 274.24C71.8601 278.3 68.1102 292.16 68.0802 297.13C73.7602 292.31 89.9501 274.99 93.1401 272.86C101.07 272.08 75.9102 310.83 64.9102 310.64Z" fill="#255296"/>
<path d="M132.92 288.18C130.09 292.62 126.49 297.7 121.2 299.85C117.55 301.17 114.03 299.51 111.91 296.33C109.801 298.573 107.133 300.212 104.18 301.08C102.134 301.466 100.017 301.16 98.1637 300.212C96.3101 299.263 94.8243 297.725 93.94 295.84C89.94 286.84 95.68 262.02 110.66 264.68C111.388 264.819 112.094 265.055 112.76 265.38C113.192 263.094 113.981 260.89 115.1 258.85C118.29 254.42 125.23 258.85 125.99 263.3C125.99 264.21 125.99 265.04 125.99 265.97C125.17 272.7 122.62 279.1 121.9 286.63C121.9 286.71 121.9 286.82 121.9 286.91C128.31 281.27 132.79 273.68 138.74 266.86C141.93 263.17 144.74 260.38 145.83 260.97C149.15 264 134.76 285.45 132.92 288.18ZM110.44 273.57C111.53 270.37 112.16 267.57 110.77 267.88C104.19 270.06 101.77 279.83 101.77 286.18C101.722 287.325 101.864 288.471 102.19 289.57H102.28C105.9 285.21 108.49 279.36 110.44 273.57Z" fill="#255296"/>
<path d="M180.31 248.46C178.94 257.16 173.51 283.1 162.4 287.91C156.12 290.21 151.58 284.18 150.91 282.5C149.36 278.63 145.84 262.79 147.1 255.22C147.72 251.58 153.1 246.73 155.58 255.22C156.98 260.79 157.81 270.22 159.88 275.57C160.47 274.51 161 273.65 161.6 272.68C166.6 264.61 170.25 255.75 175.99 246.49C180.47 239.31 181.38 241.22 180.31 248.46Z" fill="#255296"/>
<path d="M223.08 262.47C218.65 267.92 213.81 272.83 208.24 276.16C198.47 281.16 188.72 278.06 187.37 264.85C186.59 253.25 192.13 243.12 200.77 239.16C209.19 235.81 219.77 237.1 215.47 249.62C212.06 256.67 206.1 260.74 198.06 260.62C198.128 261.554 198.372 262.467 198.78 263.31C203.54 272.23 224.55 249.91 231.22 241.08C231.416 240.803 231.695 240.596 232.017 240.488C232.339 240.38 232.686 240.377 233.01 240.48C235.57 243.9 225.16 259.59 223.08 262.47ZM198.22 258.53C200.1 256.71 204.04 253.53 205.34 251.99C217.07 238.38 199.32 247.88 198.22 258.53Z" fill="#255296"/>
<path d="M244.12 274.11C244.12 275.02 244.24 275.83 244.02 276.11C241.62 277.22 238.33 274.22 236.16 271.23C232.54 266.37 231.98 260.43 232.59 254.39C234.12 237.74 238.13 221.06 239.59 203.89C239.82 201.35 242.27 203.54 243.06 204.55C245.76 208.24 246.99 216.61 247.15 218.55C248.87 236.64 241.91 252.91 244.12 274.11Z" fill="#255296"/>
</g>
</g>
<defs>
<radialGradient id="paint0_radial_83_1700" cx="0" cy="0" r="1" gradientUnits="userSpaceOnUse" gradientTransform="translate(88.9098 38.2402) scale(329.93)">
<stop stop-color="#FDD900"/>
<stop offset="0.52" stop-color="#F78F1F"/>
<stop offset="1" stop-color="#FDD900"/>
</radialGradient>
<linearGradient id="paint1_linear_83_1700" x1="31.0677" y1="123.418" x2="202.278" y2="143.804" gradientUnits="userSpaceOnUse">
<stop stop-color="#F15A29"/>
<stop offset="1" stop-color="#F7941D"/>
</linearGradient>
<clipPath id="clip0_83_1700">
<rect width="248" height="329" fill="white"/>
</clipPath>
<clipPath id="clip1_83_1700">
<rect width="248" height="329" fill="white"/>
</clipPath>
</defs>
</svg>
