<svg width="204" height="236" viewBox="0 0 204 236" fill="none" xmlns="http://www.w3.org/2000/svg">
<path d="M111.025 44.46C106.665 50.11 101.095 37.86 99.2851 44.46C98.9451 45.69 98.7051 46.83 98.4851 47.92L98.3251 47.69C94.1451 42.22 90.6451 48.34 84.4851 44.69C83.3451 44.01 94.2351 41.45 92.9051 41.55C92.9051 41.55 83.1551 37.19 77.8351 30.06C72.5151 22.93 73.5151 9.95 76.2751 0L80.9551 1.3C93.0651 4.66 105.815 14.61 110.005 22.66C114.855 31.98 111.005 44.36 111.005 44.36C110.415 44.86 111.475 43.88 111.025 44.46Z" fill="#3E7739"/>
<path d="M80.9351 6.55023C81.2557 6.26459 81.676 6.11697 82.1048 6.13944C82.5336 6.16191 82.9361 6.35265 83.2251 6.67023L86.0551 9.81023C92.5663 17.0631 97.4853 25.5999 100.495 34.8702C100.628 35.28 100.592 35.7256 100.396 36.1092C100.2 36.4927 99.8599 36.7826 99.4501 36.9152C99.0403 37.0478 98.5947 37.0122 98.2112 36.8163C97.8277 36.6203 97.5377 36.28 97.4051 35.8702C94.5555 27.0317 89.8775 18.8919 83.6751 11.9802L80.8451 8.84023C80.5557 8.5235 80.4029 8.10544 80.4197 7.67674C80.4366 7.24804 80.6217 6.84327 80.9351 6.55023Z" fill="#396C34"/>
<path d="M101.675 235.14C157.82 235.14 203.335 189.626 203.335 133.48C203.335 77.335 157.82 31.8203 101.675 31.8203C45.5299 31.8203 0.0151367 77.335 0.0151367 133.48C0.0151367 189.626 45.5299 235.14 101.675 235.14Z" fill="url(#paint0_radial_7289_6260)"/>
<path d="M133.235 230.16C135.735 229.34 138.235 228.44 140.595 227.44C115.682 233.57 89.3724 230.054 66.9435 217.596C44.5146 205.139 27.6254 184.661 19.6638 160.271C11.7022 135.882 13.2569 109.384 24.0162 86.0922C34.7755 62.8009 53.9435 44.4391 77.6754 34.6899C75.1554 35.3099 72.6387 36.0266 70.1254 36.8399C44.4895 45.2088 23.2282 63.4188 11.0187 87.4638C-1.19089 111.509 -3.34855 139.419 5.02036 165.055C13.3893 190.691 31.5992 211.952 55.6442 224.162C79.6891 236.371 107.6 238.529 133.235 230.16Z" fill="#FEBB12"/>
<path d="M161.045 176.16C162.675 175.879 164.345 175.947 165.945 176.36C167.484 176.774 168.938 177.45 170.245 178.36C171.556 179.28 172.677 180.445 173.545 181.79C174.448 183.195 175.051 184.772 175.315 186.42C175.568 188.068 175.488 189.749 175.081 191.365C174.674 192.981 173.948 194.499 172.945 195.83C158.039 212.37 139.805 222.42 118.245 225.98C92.6788 230.2 69.3988 224.787 48.4055 209.74C27.4121 194.694 14.8088 174.387 10.5955 148.82C6.39548 123.327 11.8155 100.087 26.8555 79.1004C41.8955 58.1137 62.1955 45.467 87.7555 41.1604C109.622 37.5537 130.559 41.497 150.565 52.9904C151.845 53.9092 152.919 55.086 153.716 56.4449C154.514 57.8039 155.018 59.3148 155.195 60.8804C155.487 62.5385 155.446 64.2381 155.075 65.8804C154.693 67.4294 154.014 68.8897 153.075 70.1803C152.136 71.4828 150.946 72.5843 149.575 73.4204C148.171 74.2969 146.608 74.8881 144.975 75.1604C141.821 75.6173 138.61 74.8752 135.975 73.0804C129.406 69.4426 122.274 66.9311 114.875 65.6504C107.241 64.3451 99.4401 64.3451 91.8055 65.6504C73.0188 68.7504 58.0621 78.0604 46.9355 93.5804C35.9421 108.914 31.9955 125.977 35.0955 144.77C38.1955 163.564 47.4221 178.494 62.7755 189.56C78.1955 200.62 95.3421 204.594 114.215 201.48C129.717 199.128 143.887 191.367 154.215 179.57C156.103 177.781 158.481 176.594 161.045 176.16Z" fill="url(#paint1_linear_7289_6260)"/>
<path d="M141.016 156.05C141.986 155.751 143.01 155.669 144.016 155.81C144.966 155.935 145.886 156.226 146.736 156.67C147.589 157.119 148.344 157.735 148.956 158.48C149.605 159.254 150.082 160.157 150.356 161.13C150.63 162.096 150.707 163.107 150.584 164.103C150.46 165.099 150.138 166.061 149.636 166.93C142.329 177.623 131.516 185.426 119.066 188.99C111.943 191.086 104.476 191.756 97.0943 190.961C89.7122 190.167 82.5593 187.924 76.0456 184.36C69.5318 180.797 63.7852 175.983 59.1349 170.195C54.4846 164.407 51.022 157.758 48.9455 150.63C44.7489 136.246 46.4312 120.785 53.6232 107.64C60.8151 94.4955 72.929 84.7418 87.3055 80.52C100.132 76.76 112.962 77.59 125.796 83.01C126.629 83.4694 127.356 84.0983 127.932 84.8562C128.507 85.614 128.917 86.484 129.136 87.41C129.439 88.3792 129.541 89.4 129.436 90.41C129.323 91.3628 129.031 92.2858 128.576 93.13C128.106 93.9781 127.474 94.7256 126.716 95.33C125.925 95.9536 125.022 96.4188 124.056 96.7C122.2 97.2047 120.223 96.9941 118.516 96.11C114.302 94.3932 109.83 93.396 105.286 93.16C100.616 92.9362 95.9431 93.5077 91.4655 94.85C86.2261 96.3763 81.3393 98.9215 77.0852 102.34C72.8311 105.758 69.2933 109.982 66.6746 114.77C64.0558 119.558 62.4076 124.815 61.8243 130.241C61.2411 135.667 61.7342 141.155 63.2755 146.39C65.4773 153.903 69.7567 160.64 75.6208 165.827C81.4848 171.014 88.6948 174.438 96.4201 175.706C104.145 176.974 112.072 176.033 119.286 172.992C126.5 169.952 132.708 164.935 137.196 158.52C138.201 157.342 139.529 156.483 141.016 156.05Z" fill="white"/>
<defs>
<radialGradient id="paint0_radial_7289_6260" cx="0" cy="0" r="1" gradientUnits="userSpaceOnUse" gradientTransform="translate(67.5851 37.4003) scale(329.93)">
<stop stop-color="#FDD900"/>
<stop offset="0.52" stop-color="#F78F1F"/>
<stop offset="1" stop-color="#FDD900"/>
</radialGradient>
<linearGradient id="paint1_linear_7289_6260" x1="9.74302" y1="122.578" x2="180.954" y2="142.964" gradientUnits="userSpaceOnUse">
<stop stop-color="#F15A29"/>
<stop offset="1" stop-color="#F7941D"/>
</linearGradient>
</defs>
</svg>
